<!DOCTYPE svg PUBLIC "-//W3C//DTD SVG 1.1//EN" "http://www.w3.org/Graphics/SVG/1.1/DTD/svg11.dtd">
<!-- Uploaded to: SVG Repo, www.svgrepo.com, Transformed by: SVG Repo Mixer Tools -->
<svg fill="#cb6262" height="800px" width="800px" version="1.1" id="Capa_1" xmlns="http://www.w3.org/2000/svg" xmlns:xlink="http://www.w3.org/1999/xlink" viewBox="0 0 64 64" xml:space="preserve">
<g id="SVGRepo_bgCarrier" stroke-width="0"/>
<g id="SVGRepo_tracerCarrier" stroke-linecap="round" stroke-linejoin="round"/>
<g id="SVGRepo_iconCarrier"> <g> <path d="M6.878,26.121C7.445,26.688,8.199,27,9,27s1.555-0.312,2.121-0.878C11.688,25.555,12,24.801,12,24 s-0.312-1.555-0.878-2.121c-1.134-1.134-3.11-1.133-4.243,0l0,0c0,0,0,0-0.001,0C6.312,22.445,6,23.199,6,24 S6.312,25.555,6.878,26.121z M8.293,23.294L8.293,23.294C8.482,23.104,8.733,23,9,23s0.518,0.104,0.707,0.294 C9.896,23.482,10,23.733,10,24s-0.104,0.518-0.293,0.707c-0.377,0.378-1.036,0.378-1.413-0.001C8.104,24.518,8,24.267,8,24 S8.104,23.482,8.293,23.294z"/> <path d="M32,0C14.355,0,0,14.355,0,32s14.355,32,32,32s32-14.355,32-32S49.645,0,32,0z M61.246,25.34L46.5,40.086L36.418,30.004 l1.289-1.287l-1.413-1.415l-3.967,3.962c-1.036,1.036-2.602,1.243-3.852,0.62l7.23-7.173c0.001-0.001,0.001-0.002,0.002-0.003l0,0 L51.331,9.083C56.224,13.218,59.776,18.886,61.246,25.34z M17.161,41.95l5.657-5.657c0.389-0.39,1.024-0.39,1.415,0 c0.188,0.189,0.292,0.44,0.292,0.707s-0.104,0.518-0.292,0.707l-5.657,5.657c-0.391,0.391-1.026,0.389-1.415,0 C16.771,42.974,16.771,42.34,17.161,41.95z M20.697,45.485l5.657-5.657c0.195-0.195,0.451-0.293,0.708-0.293 c0.256,0,0.512,0.097,0.707,0.292c0.39,0.39,0.39,1.024,0.001,1.415l-5.658,5.657c-0.377,0.378-1.036,0.378-1.413,0l0,0 c-0.189-0.188-0.293-0.439-0.293-0.706C20.404,45.925,20.508,45.674,20.697,45.485z M24.232,49.021l5.657-5.657 c0.189-0.188,0.44-0.292,0.707-0.292s0.518,0.104,0.707,0.292c0.39,0.39,0.39,1.024,0,1.415l-5.657,5.657 c-0.389,0.389-1.024,0.39-1.415,0C23.842,50.045,23.842,49.411,24.232,49.021z M27.768,52.556l5.657-5.657 c0.39-0.391,1.025-0.39,1.415,0s0.39,1.024,0,1.415l-5.657,5.656c-0.39,0.39-1.024,0.391-1.415,0 C27.378,53.581,27.378,52.946,27.768,52.556z M36.253,49.728c1.17-1.169,1.17-3.073,0-4.243c-0.738-0.738-1.767-1.009-2.721-0.815 c0.193-0.953-0.077-1.983-0.815-2.72c-0.738-0.738-1.767-1.008-2.721-0.815c0.193-0.953-0.077-1.983-0.815-2.721 s-1.767-1.007-2.721-0.814c0.193-0.953-0.077-1.983-0.815-2.721c-1.171-1.171-3.074-1.17-4.243,0l-4.555,4.555L14,36.586v-2.172 l13-13l1.293,1.293C28.48,22.895,28.735,23,29,23h3.586l0.997,0.997l-7.35,7.293c-0.19,0.188-0.296,0.445-0.295,0.713 s0.109,0.524,0.3,0.711c2.077,2.035,5.443,2.019,7.502-0.036l1.263-1.261l10.169,10.169c0.78,0.78,0.78,2.048,0,2.828 L34.414,55.172c-0.78,0.779-2.048,0.779-2.828,0l-0.388-0.389L36.253,49.728z M25.611,19.974L12.967,32.619l-2.182-1.983 l12.86-12.778L25.611,19.974z M49.751,7.835L35,22.586l-1.293-1.293C33.52,21.105,33.265,21,33,21h-3.586l-1.688-1.688 L15.976,6.657C20.615,3.713,26.11,2,32,2C38.638,2,44.777,4.171,49.751,7.835z M14.303,7.796l7.981,8.595L9.304,29.288 l-6.131-5.574C5.033,17.252,9.008,11.678,14.303,7.796z M32,62C15.458,62,2,48.542,2,32c0-2.084,0.215-4.119,0.621-6.084L12,34.442 V37c0,0.265,0.106,0.52,0.293,0.707l3.173,3.173c-0.868,1.174-0.782,2.836,0.281,3.898l0,0c0.585,0.584,1.353,0.876,2.121,0.876 c0.2,0,0.399-0.022,0.596-0.062c-0.039,0.195-0.06,0.395-0.06,0.599c0,0.801,0.312,1.555,0.879,2.122 c0.566,0.566,1.32,0.878,2.121,0.878c0.203,0,0.403-0.021,0.598-0.06c-0.191,0.953,0.079,1.98,0.816,2.717 c0.585,0.585,1.353,0.878,2.121,0.878c0.201,0,0.402-0.023,0.6-0.063c-0.193,0.953,0.077,1.983,0.814,2.721l0,0 c0.585,0.585,1.353,0.877,2.121,0.877c0.39,0,0.78-0.077,1.146-0.228l0.552,0.552c0.78,0.78,1.804,1.17,2.828,1.17 s2.048-0.39,2.828-1.17l10.758-10.758c1.077-1.077,1.392-2.616,0.982-3.981L61.69,27.724C61.891,29.121,62,30.548,62,32 C62,48.542,48.542,62,32,62z"/> </g> </g>
</svg>