<?xml version="1.0" ?>
<!-- Uploaded to: SVG Repo, www.svgrepo.com, Generator: SVG Repo Mixer Tools -->
<svg width="800px" height="800px" viewBox="0 0 512 512" version="1.1" xml:space="preserve" xmlns="http://www.w3.org/2000/svg" xmlns:xlink="http://www.w3.org/1999/xlink">
<style type="text/css">
	.st0{fill:#333333;}
</style>
<g id="Layer_1"/>
<g id="Layer_2">
<g>
<path class="st0" d="M256,108.24c-52.25,0-94.75,42.51-94.75,94.75s42.51,94.75,94.75,94.75s94.75-42.51,94.75-94.75    S308.25,108.24,256,108.24z M256,265.75c-34.6,0-62.75-28.15-62.75-62.75c0-34.6,28.15-62.75,62.75-62.75s62.75,28.15,62.75,62.75    C318.75,237.59,290.6,265.75,256,265.75z"/>
<path class="st0" d="M431.5,203c0-47.35-18.57-91.73-52.29-124.98c-33.71-33.24-78.36-51.18-125.74-50.5    c-45.85,0.65-89.06,19.03-121.66,51.77c-32.6,32.73-50.81,76.01-51.29,121.87c-0.46,44.44,15.74,87,45.59,119.83    c15.17,16.68,29.15,34.22,41.77,52.36c-35.52,7.31-76.12,22.09-76.12,51.48c0,18.65,16.21,33.5,48.18,44.13    c25.2,8.38,59.39,13.78,96.28,15.18c0,0,0,0,0,0c0,0,0,0,0.01,0c6.54,0.25,13.19,0.37,19.78,0.37c6.59,0,13.24-0.12,19.78-0.37    c0,0,0,0,0.01,0c0,0,0,0,0,0c36.89-1.4,71.08-6.8,96.28-15.18c31.97-10.64,48.18-25.49,48.18-44.13    c0-29.42-40.68-44.21-76.25-51.51c12.54-17.98,26.49-35.42,41.67-52.06C415.22,288.86,431.5,246.86,431.5,203z M124.09,424.79    c3.53-5.03,22.26-15.77,62.53-22.38c0.02,0.04,0.05,0.08,0.07,0.12c1.05,1.77,2.09,3.55,3.12,5.33c0.3,0.52,0.59,1.04,0.89,1.55    c0.74,1.29,1.48,2.59,2.2,3.89c0.35,0.62,0.69,1.23,1.03,1.85c0.71,1.28,1.41,2.56,2.11,3.85c0.3,0.55,0.6,1.1,0.89,1.65    c0.97,1.82,1.94,3.64,2.89,5.46c0.03,0.06,0.06,0.12,0.09,0.18c0.92,1.77,1.82,3.54,2.71,5.31c0.28,0.56,0.56,1.12,0.84,1.68    c0.65,1.31,1.3,2.62,1.94,3.93c0.3,0.61,0.6,1.23,0.89,1.84c0.66,1.38,1.31,2.75,1.96,4.13c0.23,0.49,0.46,0.98,0.69,1.47    c0.86,1.85,1.7,3.7,2.54,5.56c0.03,0.06,0.06,0.13,0.09,0.19c-21.15-2.04-40.54-5.52-56.19-10.16    C134.41,434.04,126.14,427.5,124.09,424.79z M387.91,424.79c-2.04,2.71-10.31,9.26-31.3,15.48c-15.67,4.65-35.08,8.13-56.26,10.17    c0.09-0.2,0.18-0.41,0.27-0.61c0.78-1.75,1.57-3.49,2.37-5.23c0.05-0.11,0.1-0.21,0.14-0.32c0.85-1.85,1.72-3.69,2.61-5.53    c0.26-0.54,0.52-1.08,0.78-1.62c0.64-1.33,1.29-2.66,1.95-3.98c0.3-0.6,0.59-1.19,0.89-1.79c0.71-1.41,1.43-2.83,2.15-4.24    c0.22-0.42,0.43-0.85,0.65-1.27c0.94-1.81,1.89-3.61,2.85-5.41c0.23-0.44,0.47-0.87,0.71-1.31c0.74-1.38,1.5-2.76,2.26-4.13    c0.33-0.6,0.67-1.2,1-1.8c0.71-1.28,1.43-2.55,2.16-3.82c0.31-0.55,0.63-1.1,0.94-1.65c1.02-1.77,2.05-3.53,3.09-5.28    c0.01-0.02,0.03-0.05,0.04-0.07C365.61,408.99,384.38,419.75,387.91,424.79z M303.52,376.53c-0.98,1.56-1.94,3.13-2.9,4.7    c-0.31,0.51-0.61,1.01-0.92,1.52c-0.65,1.07-1.29,2.13-1.93,3.2c-0.37,0.62-0.73,1.24-1.09,1.86c-0.57,0.96-1.13,1.92-1.69,2.89    c-0.39,0.67-0.78,1.35-1.16,2.03c-0.52,0.91-1.05,1.83-1.57,2.74c-0.4,0.71-0.79,1.42-1.19,2.13c-0.5,0.89-0.99,1.78-1.49,2.67    c-0.4,0.73-0.8,1.46-1.19,2.19c-0.48,0.88-0.96,1.75-1.43,2.63c-0.4,0.74-0.79,1.49-1.19,2.24c-0.46,0.87-0.92,1.73-1.37,2.6    c-0.4,0.76-0.79,1.53-1.19,2.29c-0.44,0.86-0.88,1.72-1.32,2.58c-0.39,0.77-0.78,1.55-1.17,2.32c-0.43,0.85-0.86,1.71-1.28,2.57    c-0.39,0.78-0.77,1.56-1.15,2.35c-0.42,0.85-0.83,1.7-1.24,2.56c-0.38,0.79-0.76,1.58-1.13,2.37c-0.4,0.85-0.8,1.7-1.2,2.54    c-0.37,0.8-0.75,1.6-1.11,2.4c-0.39,0.85-0.78,1.7-1.16,2.55c-0.36,0.8-0.72,1.6-1.08,2.41c-0.38,0.85-0.76,1.71-1.13,2.57    c-0.35,0.8-0.71,1.61-1.05,2.41c-0.37,0.85-0.73,1.71-1.1,2.56c-0.35,0.81-0.69,1.62-1.03,2.44c-0.36,0.85-0.71,1.71-1.06,2.57    c-0.33,0.81-0.67,1.62-1,2.44c-0.08,0.19-0.16,0.39-0.24,0.58c-5.84,0.1-11.68,0.1-17.52,0c-0.68-1.67-1.37-3.34-2.08-5.01    c-0.17-0.4-0.34-0.8-0.51-1.2c-0.54-1.28-1.09-2.56-1.64-3.84c-0.26-0.61-0.53-1.21-0.8-1.82c-0.47-1.07-0.94-2.14-1.42-3.21    c-0.3-0.68-0.61-1.35-0.92-2.02c-0.45-0.99-0.9-1.99-1.36-2.98c-0.33-0.71-0.66-1.42-0.99-2.13c-0.45-0.96-0.89-1.91-1.35-2.87    c-0.34-0.72-0.69-1.45-1.04-2.17c-0.45-0.93-0.9-1.87-1.35-2.8c-0.36-0.73-0.72-1.47-1.08-2.2c-0.46-0.92-0.91-1.84-1.37-2.76    c-0.37-0.73-0.74-1.47-1.11-2.2c-0.47-0.92-0.93-1.83-1.41-2.74c-0.38-0.73-0.76-1.46-1.14-2.19c-0.48-0.91-0.96-1.82-1.44-2.73    c-0.38-0.72-0.77-1.44-1.15-2.16c-0.5-0.92-0.99-1.84-1.5-2.76c-0.38-0.7-0.77-1.41-1.16-2.11c-0.51-0.93-1.03-1.86-1.56-2.79    c-0.38-0.69-0.77-1.37-1.15-2.06c-0.54-0.95-1.08-1.9-1.63-2.85c-0.38-0.66-0.75-1.32-1.13-1.97c-0.58-1-1.17-1.99-1.75-2.98    c-0.36-0.6-0.71-1.21-1.07-1.81c-0.66-1.1-1.32-2.2-1.99-3.3c-0.3-0.49-0.59-0.98-0.89-1.47c-0.97-1.58-1.94-3.16-2.93-4.74    c0,0,0-0.01-0.01-0.01c0,0,0,0,0,0c0,0,0,0,0,0c-16.83-26.94-36.53-52.87-58.54-77.09c-24.41-26.84-37.64-61.63-37.27-97.97    c0.8-77.19,64.23-140.88,141.4-141.97c38.74-0.55,75.26,14.11,102.82,41.29c27.57,27.18,42.76,63.48,42.76,102.19    c0,35.87-13.31,70.2-37.48,96.68C339.92,323.9,320.23,349.76,303.52,376.53z"/>
</g>
</g>
</svg>