<!DOCTYPE svg PUBLIC "-//W3C//DTD SVG 1.1//EN" "http://www.w3.org/Graphics/SVG/1.1/DTD/svg11.dtd">
<!-- Uploaded to: SVG Repo, www.svgrepo.com, Transformed by: SVG Repo Mixer Tools -->
<svg fill="#000000" height="800px" width="800px" version="1.1" id="Layer_1" xmlns="http://www.w3.org/2000/svg" xmlns:xlink="http://www.w3.org/1999/xlink" viewBox="0 0 512 512" xml:space="preserve" stroke="#000000" transform="matrix(-1, 0, 0, 1, 0, 0)">
<g id="SVGRepo_bgCarrier" stroke-width="0"/>
<g id="SVGRepo_tracerCarrier" stroke-linecap="round" stroke-linejoin="round" stroke="#CCCCCC" stroke-width="22.528"> <g> <g> <path d="M228.766,98.044c0-12.895,3.324-18.99,7.172-26.046c4.298-7.878,9.168-16.807,9.168-33.869 c0-17.028-4.852-25.954-9.144-33.82C234.584,1.744,231.878,0,228.763,0c-4.512,0-8.17,3.658-8.17,8.17 c0,1.424,0.366,2.762,1.007,3.927c3.845,7.051,7.167,13.144,7.167,26.031c0,12.895-3.324,18.99-7.172,26.046 c-4.298,7.878-9.168,16.807-9.168,33.869c0,17.062,4.871,25.99,9.167,33.868c1.483,2.719,4.287,4.259,7.18,4.259 c1.321,0,2.662-0.321,3.904-0.999c3.962-2.16,5.422-7.123,3.26-11.084C232.09,117.031,228.766,110.938,228.766,98.044z"/> </g> </g> <g> <g> <path d="M283.234,98.044c0-12.895,3.324-18.99,7.172-26.046c4.297-7.878,9.168-16.807,9.168-33.869 c0-17.028-4.852-25.954-9.144-33.82C289.052,1.744,286.346,0,283.231,0c-4.512,0-8.17,3.658-8.17,8.17 c0,1.424,0.366,2.762,1.007,3.927c3.845,7.051,7.167,13.144,7.167,26.031c0,12.895-3.324,18.99-7.172,26.046 c-4.298,7.878-9.168,16.807-9.168,33.869c0,17.062,4.871,25.99,9.167,33.868c1.483,2.719,4.287,4.259,7.18,4.259 c1.321,0,2.662-0.321,3.904-0.999c3.962-2.16,5.422-7.123,3.26-11.084C286.558,117.031,283.234,110.938,283.234,98.044z"/> </g> </g> <g> <g> <path d="M487.489,152.511h-85.32l100.153-96.618c0.036-0.034,0.07-0.069,0.105-0.104C508.6,49.617,512,41.41,512,32.681 s-3.4-16.936-9.572-23.109C496.255,3.4,488.048,0,479.319,0s-16.936,3.4-23.109,9.572c-0.035,0.035-0.069,0.069-0.104,0.105 L318.315,152.511H24.511C10.995,152.511,0,163.506,0,177.021c0,13.516,10.995,24.511,24.511,24.511h8.351 c4.302,105.849,91.742,190.638,198.628,190.638h49.021c106.886,0,194.326-84.789,198.628-190.638h8.351 c13.516,0,24.511-10.995,24.511-24.511C512,163.506,501.005,152.511,487.489,152.511z M467.812,21.079 c3.081-3.057,7.165-4.739,11.507-4.739c4.364,0,8.468,1.699,11.554,4.787c3.086,3.086,4.787,7.19,4.787,11.554 c0,4.342-1.682,8.426-4.739,11.507L378.635,152.511h-37.616L467.812,21.079z M487.489,185.192H106.213 c-4.512,0-8.17,3.658-8.17,8.17s3.658,8.17,8.17,8.17h356.574c-4.29,96.836-84.402,174.298-182.276,174.298h-49.021 c-97.875,0-177.986-77.462-182.276-174.298h24.319c4.512,0,8.17-3.658,8.17-8.17s-3.658-8.17-8.17-8.17H24.511 c-4.506,0-8.17-3.665-8.17-8.17s3.665-8.17,8.17-8.17h462.979c4.506,0,8.17,3.665,8.17,8.17S491.995,185.192,487.489,185.192z"/> </g> </g> <g> <g> <path d="M487.489,408.511H24.511C10.995,408.511,0,419.506,0,433.021c0,13.516,10.995,24.511,24.511,24.511h10.451l5.959,17.878 C47.761,495.928,70.06,512,91.688,512h328.624c21.628,0,43.927-16.072,50.766-36.591l5.959-17.878h10.451 c13.516,0,24.511-10.995,24.511-24.511C512,419.506,501.005,408.511,487.489,408.511z M487.489,441.191H471.32 c-0.026,0-365.107,0-365.107,0c-4.512,0-8.17,3.658-8.17,8.17s3.658,8.17,8.17,8.17h353.6l-4.237,12.711 c-4.593,13.777-20.741,25.417-35.265,25.417H91.688c-14.523,0-30.672-11.64-35.265-25.417l-4.237-12.711h21.345 c4.512,0,8.17-3.658,8.17-8.17s-3.658-8.17-8.17-8.17H40.72c-0.046,0-16.21,0-16.21,0c-4.506,0-8.17-3.665-8.17-8.17 c0-4.506,3.665-8.17,8.17-8.17h462.979c4.506,0,8.17,3.665,8.17,8.17C495.66,437.527,491.995,441.191,487.489,441.191z"/> </g> </g> </g>
<g id="SVGRepo_iconCarrier"> <g> <g> <path d="M228.766,98.044c0-12.895,3.324-18.99,7.172-26.046c4.298-7.878,9.168-16.807,9.168-33.869 c0-17.028-4.852-25.954-9.144-33.82C234.584,1.744,231.878,0,228.763,0c-4.512,0-8.17,3.658-8.17,8.17 c0,1.424,0.366,2.762,1.007,3.927c3.845,7.051,7.167,13.144,7.167,26.031c0,12.895-3.324,18.99-7.172,26.046 c-4.298,7.878-9.168,16.807-9.168,33.869c0,17.062,4.871,25.99,9.167,33.868c1.483,2.719,4.287,4.259,7.18,4.259 c1.321,0,2.662-0.321,3.904-0.999c3.962-2.16,5.422-7.123,3.26-11.084C232.09,117.031,228.766,110.938,228.766,98.044z"/> </g> </g> <g> <g> <path d="M283.234,98.044c0-12.895,3.324-18.99,7.172-26.046c4.297-7.878,9.168-16.807,9.168-33.869 c0-17.028-4.852-25.954-9.144-33.82C289.052,1.744,286.346,0,283.231,0c-4.512,0-8.17,3.658-8.17,8.17 c0,1.424,0.366,2.762,1.007,3.927c3.845,7.051,7.167,13.144,7.167,26.031c0,12.895-3.324,18.99-7.172,26.046 c-4.298,7.878-9.168,16.807-9.168,33.869c0,17.062,4.871,25.99,9.167,33.868c1.483,2.719,4.287,4.259,7.18,4.259 c1.321,0,2.662-0.321,3.904-0.999c3.962-2.16,5.422-7.123,3.26-11.084C286.558,117.031,283.234,110.938,283.234,98.044z"/> </g> </g> <g> <g> <path d="M487.489,152.511h-85.32l100.153-96.618c0.036-0.034,0.07-0.069,0.105-0.104C508.6,49.617,512,41.41,512,32.681 s-3.4-16.936-9.572-23.109C496.255,3.4,488.048,0,479.319,0s-16.936,3.4-23.109,9.572c-0.035,0.035-0.069,0.069-0.104,0.105 L318.315,152.511H24.511C10.995,152.511,0,163.506,0,177.021c0,13.516,10.995,24.511,24.511,24.511h8.351 c4.302,105.849,91.742,190.638,198.628,190.638h49.021c106.886,0,194.326-84.789,198.628-190.638h8.351 c13.516,0,24.511-10.995,24.511-24.511C512,163.506,501.005,152.511,487.489,152.511z M467.812,21.079 c3.081-3.057,7.165-4.739,11.507-4.739c4.364,0,8.468,1.699,11.554,4.787c3.086,3.086,4.787,7.19,4.787,11.554 c0,4.342-1.682,8.426-4.739,11.507L378.635,152.511h-37.616L467.812,21.079z M487.489,185.192H106.213 c-4.512,0-8.17,3.658-8.17,8.17s3.658,8.17,8.17,8.17h356.574c-4.29,96.836-84.402,174.298-182.276,174.298h-49.021 c-97.875,0-177.986-77.462-182.276-174.298h24.319c4.512,0,8.17-3.658,8.17-8.17s-3.658-8.17-8.17-8.17H24.511 c-4.506,0-8.17-3.665-8.17-8.17s3.665-8.17,8.17-8.17h462.979c4.506,0,8.17,3.665,8.17,8.17S491.995,185.192,487.489,185.192z"/> </g> </g> <g> <g> <path d="M487.489,408.511H24.511C10.995,408.511,0,419.506,0,433.021c0,13.516,10.995,24.511,24.511,24.511h10.451l5.959,17.878 C47.761,495.928,70.06,512,91.688,512h328.624c21.628,0,43.927-16.072,50.766-36.591l5.959-17.878h10.451 c13.516,0,24.511-10.995,24.511-24.511C512,419.506,501.005,408.511,487.489,408.511z M487.489,441.191H471.32 c-0.026,0-365.107,0-365.107,0c-4.512,0-8.17,3.658-8.17,8.17s3.658,8.17,8.17,8.17h353.6l-4.237,12.711 c-4.593,13.777-20.741,25.417-35.265,25.417H91.688c-14.523,0-30.672-11.64-35.265-25.417l-4.237-12.711h21.345 c4.512,0,8.17-3.658,8.17-8.17s-3.658-8.17-8.17-8.17H40.72c-0.046,0-16.21,0-16.21,0c-4.506,0-8.17-3.665-8.17-8.17 c0-4.506,3.665-8.17,8.17-8.17h462.979c4.506,0,8.17,3.665,8.17,8.17C495.66,437.527,491.995,441.191,487.489,441.191z"/> </g> </g> </g>
</svg>